<mxfile host="app.diagrams.net" modified="2023-07-18T15:54:33.246Z" agent="Mozilla/5.0 (Windows NT 10.0; Win64; x64) AppleWebKit/537.36 (KHTML, like Gecko) Chrome/114.0.0.0 Safari/537.36" etag="Zw2-HtWoE7rBoRMp5K7A" version="21.6.2" type="github">
  <diagram name="Page-1" id="74e2e168-ea6b-b213-b513-2b3c1d86103e">
    <mxGraphModel dx="1050" dy="570" grid="1" gridSize="10" guides="1" tooltips="1" connect="1" arrows="1" fold="1" page="1" pageScale="1" pageWidth="1100" pageHeight="850" background="none" math="0" shadow="0">
      <root>
        <mxCell id="0" />
        <mxCell id="1" parent="0" />
        <mxCell id="IqkODhBXvYL22IpzVX8v-13" style="edgeStyle=orthogonalEdgeStyle;rounded=0;orthogonalLoop=1;jettySize=auto;html=1;exitX=0.5;exitY=1;exitDx=0;exitDy=0;" edge="1" parent="1" source="IqkODhBXvYL22IpzVX8v-1" target="IqkODhBXvYL22IpzVX8v-2">
          <mxGeometry relative="1" as="geometry" />
        </mxCell>
        <mxCell id="IqkODhBXvYL22IpzVX8v-1" value="董事会" style="rounded=1;whiteSpace=wrap;html=1;" vertex="1" parent="1">
          <mxGeometry x="490" y="110" width="120" height="60" as="geometry" />
        </mxCell>
        <mxCell id="IqkODhBXvYL22IpzVX8v-14" style="edgeStyle=orthogonalEdgeStyle;rounded=0;orthogonalLoop=1;jettySize=auto;html=1;exitX=0.5;exitY=1;exitDx=0;exitDy=0;entryX=0.5;entryY=0;entryDx=0;entryDy=0;" edge="1" parent="1" source="IqkODhBXvYL22IpzVX8v-2" target="IqkODhBXvYL22IpzVX8v-4">
          <mxGeometry relative="1" as="geometry" />
        </mxCell>
        <mxCell id="IqkODhBXvYL22IpzVX8v-15" style="edgeStyle=orthogonalEdgeStyle;rounded=0;orthogonalLoop=1;jettySize=auto;html=1;exitX=0;exitY=0.5;exitDx=0;exitDy=0;entryX=0.5;entryY=0;entryDx=0;entryDy=0;" edge="1" parent="1" source="IqkODhBXvYL22IpzVX8v-2" target="IqkODhBXvYL22IpzVX8v-3">
          <mxGeometry relative="1" as="geometry" />
        </mxCell>
        <mxCell id="IqkODhBXvYL22IpzVX8v-16" style="edgeStyle=orthogonalEdgeStyle;rounded=0;orthogonalLoop=1;jettySize=auto;html=1;exitX=1;exitY=0.5;exitDx=0;exitDy=0;entryX=0.5;entryY=0;entryDx=0;entryDy=0;" edge="1" parent="1" source="IqkODhBXvYL22IpzVX8v-2" target="IqkODhBXvYL22IpzVX8v-5">
          <mxGeometry relative="1" as="geometry" />
        </mxCell>
        <mxCell id="IqkODhBXvYL22IpzVX8v-2" value="总经理" style="rounded=1;whiteSpace=wrap;html=1;" vertex="1" parent="1">
          <mxGeometry x="490" y="220" width="120" height="60" as="geometry" />
        </mxCell>
        <mxCell id="IqkODhBXvYL22IpzVX8v-17" style="edgeStyle=orthogonalEdgeStyle;rounded=0;orthogonalLoop=1;jettySize=auto;html=1;exitX=0;exitY=0.5;exitDx=0;exitDy=0;entryX=0.5;entryY=0;entryDx=0;entryDy=0;" edge="1" parent="1" source="IqkODhBXvYL22IpzVX8v-3" target="IqkODhBXvYL22IpzVX8v-6">
          <mxGeometry relative="1" as="geometry" />
        </mxCell>
        <mxCell id="IqkODhBXvYL22IpzVX8v-18" style="edgeStyle=orthogonalEdgeStyle;rounded=0;orthogonalLoop=1;jettySize=auto;html=1;exitX=1;exitY=0.5;exitDx=0;exitDy=0;entryX=0.5;entryY=0;entryDx=0;entryDy=0;" edge="1" parent="1" source="IqkODhBXvYL22IpzVX8v-3" target="IqkODhBXvYL22IpzVX8v-7">
          <mxGeometry relative="1" as="geometry" />
        </mxCell>
        <mxCell id="IqkODhBXvYL22IpzVX8v-19" style="edgeStyle=orthogonalEdgeStyle;rounded=0;orthogonalLoop=1;jettySize=auto;html=1;exitX=0.5;exitY=1;exitDx=0;exitDy=0;entryX=0.5;entryY=0;entryDx=0;entryDy=0;" edge="1" parent="1" source="IqkODhBXvYL22IpzVX8v-3" target="IqkODhBXvYL22IpzVX8v-8">
          <mxGeometry relative="1" as="geometry" />
        </mxCell>
        <mxCell id="IqkODhBXvYL22IpzVX8v-3" value="业务部" style="rounded=1;whiteSpace=wrap;html=1;" vertex="1" parent="1">
          <mxGeometry x="250" y="330" width="120" height="60" as="geometry" />
        </mxCell>
        <mxCell id="IqkODhBXvYL22IpzVX8v-4" value="财务部" style="rounded=1;whiteSpace=wrap;html=1;" vertex="1" parent="1">
          <mxGeometry x="490" y="330" width="120" height="60" as="geometry" />
        </mxCell>
        <mxCell id="IqkODhBXvYL22IpzVX8v-20" style="edgeStyle=orthogonalEdgeStyle;rounded=0;orthogonalLoop=1;jettySize=auto;html=1;exitX=0;exitY=0.5;exitDx=0;exitDy=0;entryX=0.5;entryY=0;entryDx=0;entryDy=0;" edge="1" parent="1" source="IqkODhBXvYL22IpzVX8v-5" target="IqkODhBXvYL22IpzVX8v-10">
          <mxGeometry relative="1" as="geometry" />
        </mxCell>
        <mxCell id="IqkODhBXvYL22IpzVX8v-21" style="edgeStyle=orthogonalEdgeStyle;rounded=0;orthogonalLoop=1;jettySize=auto;html=1;exitX=0.5;exitY=1;exitDx=0;exitDy=0;entryX=0.5;entryY=0;entryDx=0;entryDy=0;" edge="1" parent="1" source="IqkODhBXvYL22IpzVX8v-5" target="IqkODhBXvYL22IpzVX8v-12">
          <mxGeometry relative="1" as="geometry" />
        </mxCell>
        <mxCell id="IqkODhBXvYL22IpzVX8v-22" style="edgeStyle=orthogonalEdgeStyle;rounded=0;orthogonalLoop=1;jettySize=auto;html=1;exitX=1;exitY=0.5;exitDx=0;exitDy=0;entryX=0.62;entryY=-0.01;entryDx=0;entryDy=0;entryPerimeter=0;" edge="1" parent="1" source="IqkODhBXvYL22IpzVX8v-5" target="IqkODhBXvYL22IpzVX8v-11">
          <mxGeometry relative="1" as="geometry" />
        </mxCell>
        <mxCell id="IqkODhBXvYL22IpzVX8v-5" value="综合管理部" style="rounded=1;whiteSpace=wrap;html=1;" vertex="1" parent="1">
          <mxGeometry x="730" y="330" width="120" height="60" as="geometry" />
        </mxCell>
        <mxCell id="IqkODhBXvYL22IpzVX8v-6" value="业务部" style="rounded=1;whiteSpace=wrap;html=1;" vertex="1" parent="1">
          <mxGeometry x="100" y="445" width="100" height="60" as="geometry" />
        </mxCell>
        <mxCell id="IqkODhBXvYL22IpzVX8v-7" value="业务部" style="rounded=1;whiteSpace=wrap;html=1;" vertex="1" parent="1">
          <mxGeometry x="420" y="445" width="100" height="60" as="geometry" />
        </mxCell>
        <mxCell id="IqkODhBXvYL22IpzVX8v-8" value="业务部" style="rounded=1;whiteSpace=wrap;html=1;" vertex="1" parent="1">
          <mxGeometry x="260" y="445" width="100" height="60" as="geometry" />
        </mxCell>
        <mxCell id="IqkODhBXvYL22IpzVX8v-10" value="业务部" style="rounded=1;whiteSpace=wrap;html=1;" vertex="1" parent="1">
          <mxGeometry x="580" y="445" width="100" height="60" as="geometry" />
        </mxCell>
        <mxCell id="IqkODhBXvYL22IpzVX8v-11" value="业务部" style="rounded=1;whiteSpace=wrap;html=1;" vertex="1" parent="1">
          <mxGeometry x="900" y="445" width="100" height="60" as="geometry" />
        </mxCell>
        <mxCell id="IqkODhBXvYL22IpzVX8v-12" value="业务部" style="rounded=1;whiteSpace=wrap;html=1;" vertex="1" parent="1">
          <mxGeometry x="740" y="445" width="100" height="60" as="geometry" />
        </mxCell>
      </root>
    </mxGraphModel>
  </diagram>
</mxfile>
